<svg width="32" height="32" viewBox="0 0 32 32" fill="none" xmlns="http://www.w3.org/2000/svg">
  <rect width="32" height="32" rx="8" fill="url(#g)" />
  <path d="M15 8.5c.3 0 .56.2.65.49l1.06 3.3 3.3 1.06a.68.68 0 0 1 0 1.3l-3.3 1.06-1.06 3.3a.68.68 0 0 1-1.3 0l-1.06-3.3-3.3-1.06a.68.68 0 0 1 0-1.3l3.3-1.06 1.06-3.3A.68.68 0 0 1 15 8.5Z" fill="white" />
  <circle cx="22.5" cy="21.5" r="1.6" fill="white" fill-opacity="0.95" />
  <defs>
    <linearGradient id="g" x1="2" y1="2" x2="30" y2="30" gradientUnits="userSpaceOnUse">
      <stop stop-color="#8b5cf6" />
      <stop offset="1" stop-color="#6d28d9" />
    </linearGradient>
  </defs>
</svg>
